<mxfile host="app.diagrams.net" modified="2022-04-25T07:51:38.590Z" agent="5.0 (Windows NT 10.0; Win64; x64) AppleWebKit/537.36 (KHTML, like Gecko) Chrome/94.0.4606.12 Safari/537.36" etag="PIX661q1as1kJd3cwS5I" version="17.4.6" type="github">
  <diagram id="Y_RT8R7E_N2-MU1pu80J" name="Page-1">
    <mxGraphModel dx="1422" dy="762" grid="1" gridSize="10" guides="1" tooltips="1" connect="1" arrows="1" fold="1" page="1" pageScale="1" pageWidth="827" pageHeight="1169" math="0" shadow="0">
      <root>
        <mxCell id="0" />
        <mxCell id="1" parent="0" />
        <mxCell id="T2cUAbRwzHgv1kCFVqOe-1" value="用户" style="text;html=1;align=center;verticalAlign=middle;resizable=0;points=[];autosize=1;strokeColor=none;fillColor=none;fontSize=16;" vertex="1" parent="1">
          <mxGeometry x="80" y="897" width="42" height="23" as="geometry" />
        </mxCell>
        <mxCell id="T2cUAbRwzHgv1kCFVqOe-2" value="商户" style="text;html=1;align=center;verticalAlign=middle;resizable=0;points=[];autosize=1;strokeColor=none;fillColor=none;fontSize=16;" vertex="1" parent="1">
          <mxGeometry x="657.5" y="897" width="42" height="23" as="geometry" />
        </mxCell>
        <mxCell id="T2cUAbRwzHgv1kCFVqOe-3" value="" style="endArrow=classic;html=1;rounded=0;entryX=0;entryY=0.5;entryDx=0;entryDy=0;fontSize=16;exitX=1;exitY=0.5;exitDx=0;exitDy=0;" edge="1" parent="1" source="T2cUAbRwzHgv1kCFVqOe-6">
          <mxGeometry width="50" height="50" relative="1" as="geometry">
            <mxPoint x="146" y="837.5" as="sourcePoint" />
            <mxPoint x="326" y="837.5" as="targetPoint" />
          </mxGeometry>
        </mxCell>
        <mxCell id="T2cUAbRwzHgv1kCFVqOe-4" value="" style="endArrow=classic;html=1;rounded=0;exitX=1;exitY=0.5;exitDx=0;exitDy=0;entryX=0;entryY=0.5;entryDx=0;entryDy=0;fontSize=16;" edge="1" parent="1" target="T2cUAbRwzHgv1kCFVqOe-7">
          <mxGeometry width="50" height="50" relative="1" as="geometry">
            <mxPoint x="436" y="837.5" as="sourcePoint" />
            <mxPoint x="616" y="837.5" as="targetPoint" />
          </mxGeometry>
        </mxCell>
        <mxCell id="T2cUAbRwzHgv1kCFVqOe-5" value="微信支付" style="text;html=1;align=center;verticalAlign=middle;resizable=0;points=[];autosize=1;strokeColor=none;fillColor=none;fontSize=16;" vertex="1" parent="1">
          <mxGeometry x="348" y="750" width="80" height="20" as="geometry" />
        </mxCell>
        <mxCell id="T2cUAbRwzHgv1kCFVqOe-6" value="" style="image;html=1;image=img/lib/clip_art/people/Suit_Woman_128x128.png;fontSize=16;" vertex="1" parent="1">
          <mxGeometry x="51" y="788.75" width="100" height="97.5" as="geometry" />
        </mxCell>
        <mxCell id="T2cUAbRwzHgv1kCFVqOe-7" value="" style="image;html=1;image=img/lib/clip_art/people/Suit_Woman_Blue_128x128.png;fontSize=16;" vertex="1" parent="1">
          <mxGeometry x="626" y="783.75" width="105" height="107.5" as="geometry" />
        </mxCell>
        <mxCell id="T2cUAbRwzHgv1kCFVqOe-8" style="edgeStyle=orthogonalEdgeStyle;rounded=0;orthogonalLoop=1;jettySize=auto;html=1;exitX=0.5;exitY=0;exitDx=0;exitDy=0;fontSize=16;fontColor=#000000;startArrow=classic;startFill=1;endArrow=none;endFill=0;" edge="1" parent="1">
          <mxGeometry relative="1" as="geometry">
            <mxPoint x="380.5" y="980" as="sourcePoint" />
            <mxPoint x="381" y="896" as="targetPoint" />
            <Array as="points">
              <mxPoint x="381" y="951" />
              <mxPoint x="381" y="951" />
            </Array>
          </mxGeometry>
        </mxCell>
        <mxCell id="T2cUAbRwzHgv1kCFVqOe-9" value="" style="shape=image;html=1;verticalAlign=top;verticalLabelPosition=bottom;labelBackgroundColor=#ffffff;imageAspect=0;aspect=fixed;image=https://cdn0.iconfinder.com/data/icons/business-startup-10/50/21-128.png;fontSize=16;" vertex="1" parent="1">
          <mxGeometry x="206" y="780" width="60.5" height="60.5" as="geometry" />
        </mxCell>
        <mxCell id="T2cUAbRwzHgv1kCFVqOe-10" value="" style="shape=image;html=1;verticalAlign=top;verticalLabelPosition=bottom;labelBackgroundColor=#ffffff;imageAspect=0;aspect=fixed;image=https://cdn0.iconfinder.com/data/icons/business-startup-10/50/21-128.png;fontSize=16;" vertex="1" parent="1">
          <mxGeometry x="506" y="780" width="60.5" height="60.5" as="geometry" />
        </mxCell>
        <mxCell id="T2cUAbRwzHgv1kCFVqOe-11" value="支付" style="text;html=1;align=center;verticalAlign=middle;resizable=0;points=[];autosize=1;strokeColor=none;fillColor=none;fontSize=16;" vertex="1" parent="1">
          <mxGeometry x="206" y="850" width="50" height="20" as="geometry" />
        </mxCell>
        <mxCell id="T2cUAbRwzHgv1kCFVqOe-12" value="结转" style="text;html=1;align=center;verticalAlign=middle;resizable=0;points=[];autosize=1;strokeColor=none;fillColor=none;fontSize=16;" vertex="1" parent="1">
          <mxGeometry x="516.5" y="850" width="50" height="20" as="geometry" />
        </mxCell>
        <mxCell id="T2cUAbRwzHgv1kCFVqOe-13" value="" style="shape=image;html=1;verticalAlign=top;verticalLabelPosition=bottom;labelBackgroundColor=#ffffff;imageAspect=0;aspect=fixed;image=https://cdn1.iconfinder.com/data/icons/rounded-social-media/512/wechat-128.png;fontSize=16;fontColor=#000000;" vertex="1" parent="1">
          <mxGeometry x="333" y="788.75" width="95" height="95" as="geometry" />
        </mxCell>
        <mxCell id="T2cUAbRwzHgv1kCFVqOe-14" value="签约" style="text;html=1;align=center;verticalAlign=middle;resizable=0;points=[];autosize=1;strokeColor=none;fillColor=none;fontSize=16;fontColor=#000000;" vertex="1" parent="1">
          <mxGeometry x="380" y="918" width="50" height="20" as="geometry" />
        </mxCell>
        <mxCell id="T2cUAbRwzHgv1kCFVqOe-15" value="第三方支付" style="text;html=1;align=center;verticalAlign=middle;resizable=0;points=[];autosize=1;strokeColor=none;fillColor=none;fontSize=32;fontColor=#000000;fontStyle=1" vertex="1" parent="1">
          <mxGeometry x="290.5" y="670" width="180" height="40" as="geometry" />
        </mxCell>
        <mxCell id="T2cUAbRwzHgv1kCFVqOe-16" value="" style="shape=mxgraph.signs.travel.bank;html=1;pointerEvents=1;fillColor=#f8cecc;strokeColor=#b85450;verticalLabelPosition=bottom;verticalAlign=top;align=center;strokeWidth=0;gradientColor=#ea6b66;fontSize=18;" vertex="1" parent="1">
          <mxGeometry x="336" y="987" width="89" height="86" as="geometry" />
        </mxCell>
      </root>
    </mxGraphModel>
  </diagram>
</mxfile>
